<?xml version="1.0" standalone="no"?>
<!DOCTYPE svg PUBLIC "-//W3C//DTD SVG 20010904//EN"
 "http://www.w3.org/TR/2001/REC-SVG-20010904/DTD/svg10.dtd">
<svg version="1.0" xmlns="http://www.w3.org/2000/svg"
 width="120.000000pt" height="120.000000pt" viewBox="0 0 120.000000 120.000000"
 preserveAspectRatio="xMidYMid meet">
<metadata>
Created by potrace 1.11, written by Peter Selinger 2001-2013
</metadata>
<g transform="translate(0.000000,120.000000) scale(0.100000,-0.100000)"
fill="#000000" stroke="none">
<path d="M483 1125 c-145 -32 -296 -147 -360 -276 -153 -303 -16 -651 302
-768 226 -84 506 13 638 220 65 103 81 160 81 294 0 102 -4 129 -24 180 -103
266 -364 409 -637 350z m256 -24 c120 -37 231 -134 290 -252 31 -62 41 -129
20 -129 -6 0 -27 13 -46 30 -35 31 -91 40 -122 21 -10 -7 -23 1 -46 25 -43 45
-90 47 -137 5 -32 -29 -33 -31 -31 -105 1 -64 6 -85 34 -137 42 -78 80 -119
111 -119 14 0 47 7 74 15 27 8 52 15 57 15 14 0 7 -18 -17 -48 -57 -67 -356
-97 -532 -52 -66 17 -85 27 -111 57 -18 20 -33 40 -33 44 0 4 27 -2 61 -12 78
-24 92 -24 126 5 78 66 130 225 99 300 -31 74 -107 89 -161 32 -23 -24 -36
-32 -46 -25 -36 23 -110 5 -137 -33 -7 -10 -20 -18 -29 -18 -23 0 -12 68 24
138 55 109 158 200 277 243 69 25 195 25 275 0z m-122 -957 c-3 -3 -12 -4 -19
-1 -8 3 -5 6 6 6 11 1 17 -2 13 -5z"/>
</g>
</svg>
